<mxfile host="app.diagrams.net" agent="Mozilla/5.0 (Windows NT 10.0; Win64; x64) AppleWebKit/537.36 (KHTML, like Gecko) Chrome/131.0.0.0 Safari/537.36" version="25.0.1">
  <diagram name="Page-1" id="VKNRY4JgsCe7GrsyqzFn">
    <mxGraphModel dx="991" dy="613" grid="1" gridSize="10" guides="1" tooltips="1" connect="1" arrows="1" fold="1" page="1" pageScale="1" pageWidth="827" pageHeight="1169" math="0" shadow="0">
      <root>
        <mxCell id="0" />
        <mxCell id="1" parent="0" />
        <mxCell id="O1jRqN1C9RyeZms-eOrc-4" value="" style="rounded=0;whiteSpace=wrap;html=1;" vertex="1" parent="1">
          <mxGeometry x="250" y="100" width="200" height="200" as="geometry" />
        </mxCell>
        <mxCell id="O1jRqN1C9RyeZms-eOrc-5" value="Welcome to AI Checkers" style="text;html=1;align=center;verticalAlign=middle;resizable=0;points=[];autosize=1;strokeColor=none;fillColor=none;" vertex="1" parent="1">
          <mxGeometry x="275" y="100" width="150" height="30" as="geometry" />
        </mxCell>
        <mxCell id="O1jRqN1C9RyeZms-eOrc-6" value="&lt;font style=&quot;font-size: 8px;&quot;&gt;Rules&lt;/font&gt;" style="rounded=0;whiteSpace=wrap;html=1;" vertex="1" parent="1">
          <mxGeometry x="290" y="130" width="40" height="10" as="geometry" />
        </mxCell>
        <mxCell id="O1jRqN1C9RyeZms-eOrc-7" value="&lt;font style=&quot;font-size: 8px;&quot;&gt;All Params&lt;/font&gt;" style="rounded=0;whiteSpace=wrap;html=1;" vertex="1" parent="1">
          <mxGeometry x="360" y="130" width="50" height="10" as="geometry" />
        </mxCell>
        <mxCell id="O1jRqN1C9RyeZms-eOrc-8" value="" style="endArrow=classic;html=1;rounded=0;exitX=0;exitY=0.5;exitDx=0;exitDy=0;fillColor=#f8cecc;strokeColor=#b85450;" edge="1" parent="1" source="O1jRqN1C9RyeZms-eOrc-6">
          <mxGeometry width="50" height="50" relative="1" as="geometry">
            <mxPoint x="320" y="200" as="sourcePoint" />
            <mxPoint x="150" y="135" as="targetPoint" />
          </mxGeometry>
        </mxCell>
        <mxCell id="O1jRqN1C9RyeZms-eOrc-9" value="Schema" style="text;html=1;align=center;verticalAlign=middle;resizable=0;points=[];autosize=1;strokeColor=none;fillColor=none;fontColor=#EA6B66;" vertex="1" parent="1">
          <mxGeometry x="154" y="110" width="70" height="30" as="geometry" />
        </mxCell>
        <mxCell id="O1jRqN1C9RyeZms-eOrc-10" value="" style="rounded=0;whiteSpace=wrap;html=1;" vertex="1" parent="1">
          <mxGeometry x="30" y="90" width="120" height="115" as="geometry" />
        </mxCell>
        <mxCell id="O1jRqN1C9RyeZms-eOrc-11" value="&lt;u&gt;Checkers Rules&lt;/u&gt;" style="text;html=1;align=center;verticalAlign=middle;resizable=0;points=[];autosize=1;strokeColor=none;fillColor=none;" vertex="1" parent="1">
          <mxGeometry x="20" y="90" width="110" height="30" as="geometry" />
        </mxCell>
        <mxCell id="O1jRqN1C9RyeZms-eOrc-13" value=".................................&lt;div&gt;.................................&lt;/div&gt;&lt;div&gt;.................................&lt;/div&gt;&lt;div&gt;.................................&lt;div&gt;.................................&lt;/div&gt;&lt;div&gt;.................................&lt;/div&gt;&lt;/div&gt;" style="text;html=1;align=center;verticalAlign=middle;resizable=0;points=[];autosize=1;strokeColor=none;fillColor=none;fontColor=#EA6B66;" vertex="1" parent="1">
          <mxGeometry x="25" y="105" width="130" height="100" as="geometry" />
        </mxCell>
        <mxCell id="O1jRqN1C9RyeZms-eOrc-14" value="" style="endArrow=classic;html=1;rounded=0;fillColor=#f8cecc;strokeColor=#b85450;exitX=1;exitY=0.5;exitDx=0;exitDy=0;" edge="1" parent="1" source="O1jRqN1C9RyeZms-eOrc-7">
          <mxGeometry width="50" height="50" relative="1" as="geometry">
            <mxPoint x="480" y="120" as="sourcePoint" />
            <mxPoint x="540" y="135" as="targetPoint" />
          </mxGeometry>
        </mxCell>
        <mxCell id="O1jRqN1C9RyeZms-eOrc-15" value="" style="rounded=0;whiteSpace=wrap;html=1;" vertex="1" parent="1">
          <mxGeometry x="540" y="90" width="120" height="115" as="geometry" />
        </mxCell>
        <mxCell id="O1jRqN1C9RyeZms-eOrc-16" value="&lt;u&gt;All Params&lt;/u&gt;" style="text;html=1;align=center;verticalAlign=middle;resizable=0;points=[];autosize=1;strokeColor=none;fillColor=none;" vertex="1" parent="1">
          <mxGeometry x="535" y="90" width="80" height="30" as="geometry" />
        </mxCell>
        <mxCell id="O1jRqN1C9RyeZms-eOrc-17" value="&lt;font style=&quot;font-size: 10px;&quot;&gt;Param Name: Description&lt;/font&gt;&lt;div&gt;&lt;font style=&quot;font-size: 10px;&quot;&gt;Param Name: Description&lt;/font&gt;&lt;/div&gt;&lt;div&gt;&lt;font style=&quot;font-size: 10px;&quot;&gt;.&lt;/font&gt;&lt;/div&gt;&lt;div&gt;&lt;font style=&quot;font-size: 10px;&quot;&gt;.&lt;/font&gt;&lt;/div&gt;&lt;div&gt;&lt;font style=&quot;font-size: 10px;&quot;&gt;.&lt;/font&gt;&lt;/div&gt;&lt;div&gt;&lt;font style=&quot;font-size: 10px;&quot;&gt;Param Name: Description&lt;/font&gt;&lt;/div&gt;" style="text;html=1;align=center;verticalAlign=middle;resizable=0;points=[];autosize=1;strokeColor=none;fillColor=none;fontColor=#EA6B66;" vertex="1" parent="1">
          <mxGeometry x="530" y="105" width="140" height="100" as="geometry" />
        </mxCell>
        <mxCell id="O1jRqN1C9RyeZms-eOrc-18" value="Schema" style="text;html=1;align=center;verticalAlign=middle;resizable=0;points=[];autosize=1;strokeColor=none;fillColor=none;fontColor=#EA6B66;" vertex="1" parent="1">
          <mxGeometry x="462" y="110" width="70" height="30" as="geometry" />
        </mxCell>
      </root>
    </mxGraphModel>
  </diagram>
</mxfile>
